HIERARCHY
ROOT hip
{
	OFFSET 0.000000 0.000000 0.000000 
	CHANNELS 6 Xposition Yposition Zposition Xrotation Zrotation Yrotation
	JOINT abdomen
	{
		OFFSET 0.000000 3.402643 0.000000 
		CHANNELS 3 Xrotation Zrotation Yrotation
		JOINT chest
		{
			OFFSET 0.000000 8.438565 -0.680529 
			CHANNELS 3 Xrotation Zrotation Yrotation
			JOINT neck
			{
				OFFSET 0.000000 10.207942 -0.272212 
				CHANNELS 3 Xrotation Zrotation Yrotation
				JOINT head
				{
					OFFSET 0.000000 3.130431 0.000000 
					CHANNELS 3 Xrotation Zrotation Yrotation
					End Site
					{
						OFFSET 0.000000 3.130435 0.000000 
					}
				}
			}
			JOINT lCollar
			{
				OFFSET 3.470700 6.669187 -0.816635 
				CHANNELS 3 Yrotation Zrotation Xrotation
				JOINT lShldr
				{
					OFFSET 3.198488 0.000000 0.000000 
					CHANNELS 3 Zrotation Yrotation Xrotation
					JOINT lForeArm
					{
						OFFSET 10.139888 0.000000 0.000000 
						CHANNELS 3 Yrotation Zrotation Xrotation
						JOINT lHand
						{
							OFFSET 8.370511 0.000000 0.000000 
							CHANNELS 3 Zrotation Yrotation Xrotation
							End Site
							{
								OFFSET 4.083176 0.000000 0.000000 
							}
						}
					}
				}
			}
			JOINT rCollar
			{
				OFFSET -3.470700 6.669187 -0.816635 
				CHANNELS 3 Yrotation Zrotation Xrotation
				JOINT rShldr
				{
					OFFSET -3.198488 0.000000 0.000000 
					CHANNELS 3 Zrotation Yrotation Xrotation
					JOINT rForeArm
					{
						OFFSET -10.139888 0.000000 0.000000 
						CHANNELS 3 Yrotation Zrotation Xrotation
						JOINT rHand
						{
							OFFSET -8.370511 0.000000 0.000000 
							CHANNELS 3 Zrotation Yrotation Xrotation
							End Site
							{
								OFFSET -4.083176 0.000000 0.000000 
							}
						}
					}
				}
			}
		}
	}
	JOINT lThigh
	{
		OFFSET 5.308129 -1.633274 1.361059 
		CHANNELS 3 Xrotation Zrotation Yrotation
		JOINT lShin
		{
			OFFSET -2.041588 -20.007561 0.000000 
			CHANNELS 3 Xrotation Zrotation Yrotation
			JOINT lFoot
			{
				OFFSET 0.000000 -19.190928 -1.224953 
				CHANNELS 3 Xrotation Yrotation Zrotation
				End Site
				{
					OFFSET 0.000000 -2.449906 4.627600 
				}
			}
		}
	}
	JOINT rThigh
	{
		OFFSET -5.308129 -1.633274 1.361059 
		CHANNELS 3 Xrotation Zrotation Yrotation
		JOINT rShin
		{
			OFFSET 2.041588 -20.007561 0.000000 
			CHANNELS 3 Xrotation Zrotation Yrotation
			JOINT rFoot
			{
				OFFSET 0.000000 -19.190928 -1.224953 
				CHANNELS 3 Xrotation Yrotation Zrotation
				End Site
				{
					OFFSET 0.000000 -2.449906 4.627600 
				}
			}
		}
	}
}
MOTION
Frames: 8
Frame Time: 0.016667
-16.737610 36.696968 72.537735 4.270640 7.050880 11.785800 -2.334070 6.826010 -3.619770 30.389200 2.347850 -1.839240 -9.022860 14.134000 -9.237510 1.792880 10.211700 -4.232050 2.000000 -2.000000 0.000000 96.906097 -160.294998 5.026590 58.896999 -0.285474 0.117116 0.064190 -0.055184 -157.039001 -2.000000 2.000000 0.000000 43.040798 25.909901 171.093994 -74.356003 0.251716 0.131659 -0.057953 0.033578 -149.001999 -35.019024 -2.147032 8.015538 74.991165 -0.364687 4.622592 -22.673328 8.962003 3.676188 -40.878773 -12.352079 -10.319804 69.706390 -0.245249 -4.410373 -32.886353 -15.619716 -9.095695 
-16.795351 36.596649 72.975174 4.219100 7.830550 12.051700 -2.512600 7.349790 -3.248900 30.128700 2.792660 -1.599180 -9.106640 14.496300 -9.487860 1.732330 10.406500 -4.367330 2.000000 -2.000000 0.000000 96.847603 -160.421997 4.801690 58.672401 -0.285933 0.116838 0.063900 -0.054387 -156.735992 -2.000000 2.000000 0.000000 42.611000 25.861401 170.957001 -73.818901 0.252949 0.131307 -0.058022 0.033899 -149.119003 -36.763809 -3.724683 8.346642 73.658699 -0.294209 4.605531 -22.662197 8.297245 3.188647 -40.526493 -13.051370 -9.887150 70.627151 -0.189953 -4.419681 -33.757359 -15.356444 -9.291372 
-16.789734 36.539806 73.428246 4.189540 8.756200 12.349300 -2.684480 7.689270 -3.158810 29.956699 3.256550 -1.511720 -8.953210 14.799100 -9.551950 1.761300 10.562800 -4.407180 2.000000 -2.000000 0.000000 96.935699 -160.791000 4.166090 58.682201 -0.285913 0.116850 0.064012 -0.054696 -156.852997 -2.000000 2.000000 0.000000 42.504002 26.045601 171.533005 -73.389198 0.253933 0.131018 -0.057896 0.033311 -148.904007 -38.210361 -5.623864 8.666169 71.649414 -0.175602 4.563264 -22.483774 7.650258 2.664744 -40.068676 -14.001351 -9.436228 71.431213 -0.147431 -4.452260 -34.282997 -15.192511 -9.422988 
-16.789734 36.482399 73.882538 4.044570 9.050050 12.210800 -2.899540 8.161100 -2.935460 29.686399 3.625480 -1.351290 -8.863330 15.176300 -9.647710 1.790030 10.767900 -4.458510 2.000000 -2.000000 0.000000 97.014000 -161.179993 3.423030 58.623600 -0.286032 0.116777 0.063900 -0.054387 -156.735992 -2.000000 2.000000 0.000000 -137.524994 153.819000 -7.743580 -73.066902 0.254669 0.130796 -0.057783 0.032775 -148.709000 -39.632881 -6.594407 8.809109 69.639313 -0.023460 4.514674 -22.563684 6.390572 1.959315 -39.560020 -14.005760 -9.026957 71.881416 -0.120671 -4.447157 -35.053345 -15.187190 -9.752969 
-16.781757 36.566990 74.332565 3.834860 8.857390 11.783200 -3.044360 8.589810 -2.766580 29.474600 3.965310 -1.242990 -8.863390 15.287500 -9.585220 1.810110 10.729000 -4.424080 2.000000 -2.000000 0.000000 97.463402 -161.539001 2.318700 58.789600 -0.285694 0.116983 0.063882 -0.054336 -156.716995 -2.000000 2.000000 0.000000 -137.259995 153.313995 -6.550940 -72.910698 0.255025 0.130687 -0.057800 0.032856 -148.738007 -40.735168 -6.998292 8.603395 67.207268 0.166989 4.444428 -22.567408 4.936702 1.205303 -38.797401 -13.251759 -8.623853 71.734756 -0.130710 -4.452225 -35.448586 -15.359940 -10.101830 
-16.714130 36.716961 74.803703 3.627610 8.888690 11.382400 -3.217590 8.955140 -2.666300 29.330500 4.208170 -1.157360 -8.951310 15.512700 -9.687630 1.799810 10.797200 -4.457810 2.000000 -2.000000 0.000000 97.697998 -161.927994 1.634220 58.984901 -0.285295 0.117224 0.063937 -0.054490 -156.774994 -2.000000 2.000000 0.000000 -137.005997 153.268005 -5.505900 -72.852097 0.255159 0.130646 -0.057744 0.032588 -148.639999 -41.486362 -7.733710 8.038245 64.264809 0.388860 4.335072 -22.590408 3.096807 0.414847 -37.873207 -12.928847 -8.299232 71.381302 -0.158353 -4.433424 -35.493759 -15.393744 -10.222131 
-16.621790 36.910969 75.261482 3.526540 8.655700 10.483900 -3.491850 9.305830 -2.434570 29.038900 4.404610 -1.013410 -8.980760 15.584900 -9.767510 1.799810 10.797200 -4.496870 2.000000 -2.000000 0.000000 97.981697 -162.541000 0.949229 59.219299 -0.284815 0.117511 0.063882 -0.054336 -156.716995 -2.000000 2.000000 0.000000 -136.556000 153.309998 -4.343890 -72.861900 0.255137 0.130652 -0.057851 0.033097 -148.826004 -42.066719 -8.031910 7.350839 61.086185 0.638632 4.202896 -22.553701 1.890731 -0.070569 -37.106773 -12.075966 -7.690302 70.665016 -0.225537 -4.413055 -35.391762 -15.451362 -10.307223 
-16.510798 37.160477 75.737358 3.355220 8.267250 9.380070 -3.825690 9.684190 -2.245540 28.619699 4.583340 -0.903895 -9.284190 15.727400 -9.991370 1.679900 10.903900 -4.601270 2.000000 -2.000000 0.000000 98.275299 -163.369995 0.429758 59.492699 -0.284254 0.117843 0.063956 -0.054541 -156.794998 -2.000000 2.000000 0.000000 -136.097000 153.518005 -3.104160 -72.930199 0.254981 0.130700 -0.057936 0.033498 -148.973007 -42.251949 -8.091312 6.227198 57.582737 0.909379 4.032402 -22.233219 0.573235 -0.534968 -36.151802 -11.078752 -7.207273 69.663895 -0.315181 -4.372254 -35.140865 -15.403070 -10.285979 
